<svg xmlns="http://www.w3.org/2000/svg" width="18.735" height="18.918" viewBox="0 0 18.735 18.918">
  <g id="cart" transform="translate(0 0)">
    <path id="Path_2068" data-name="Path 2068" d="M253.3,230.832l.3,4.452h2.376l.3-4.452Zm0,0" transform="translate(-243.942 -222.303)" fill="#ecb7bf"/>
    <path id="Path_2069" data-name="Path 2069" d="M243.266,80.332l.3,4.452h3.117l.3-4.452Zm0,0" transform="translate(-234.278 -77.364)" fill="#ecb7bf"/>
    <path id="Path_2070" data-name="Path 2070" d="M365.734,84.788h4.889l.314-2.354a1.821,1.821,0,0,0-1.837-2.1h-3.069Zm0,0" transform="translate(-352.221 -77.368)" fill="#ecb7bf"/>
    <path id="Path_2071" data-name="Path 2071" d="M96.338,237.144H85.157a1.19,1.19,0,0,1-1.131-.99l-.116-.87h3.8l-.3-4.452H82.2l.729,5.469a2.242,2.242,0,0,0,.759,1.383,2.291,2.291,0,0,0,1.064.529,2.039,2.039,0,1,0,3.605.04h2.9a2.038,2.038,0,1,0,3.626,0h1.452a.554.554,0,0,0,0-1.108Zm0,0" transform="translate(-79.162 -222.303)" fill="#ecb7bf"/>
    <path id="Path_2072" data-name="Path 2072" d="M2.18,2.1l.71,5.322H8.174l-.3-4.452H3.414L3.278,1.952A2.055,2.055,0,0,0,1.543,0H.554a.554.554,0,1,0,0,1.108h.989c.178,0,.554.376.636.99Zm0,0" fill="#ecb7bf"/>
    <path id="Path_2073" data-name="Path 2073" d="M356,230.832l-.3,4.452h2.549a2.3,2.3,0,0,0,2.23-1.952l.333-2.5Zm0,0" transform="translate(-342.56 -222.303)" fill="#ecb7bf"/>
  </g>
</svg>
