<svg xmlns="http://www.w3.org/2000/svg" width="16.686" height="15.35" viewBox="0 0 16.686 15.35">
  <g id="news" transform="translate(-1.572 -18.819)">
    <g id="base" transform="translate(0 17.247)">
      <g id="Group_39" data-name="Group 39" transform="translate(0 0)">
        <path id="Path_2064" data-name="Path 2064" d="M4.348,32.781a1.391,1.391,0,0,1-1.12,1.362H2.96v.026a1.39,1.39,0,0,1-1.388-1.388V28.406A1.39,1.39,0,0,1,2.96,27.018H4.348v5.763Zm13.91-.576a1.964,1.964,0,0,1-1.938,1.938H5.588a2.94,2.94,0,0,0,.332-1.362V18.819H18.258Z" transform="translate(0 -17.247)" fill="#ecb7bf"/>
      </g>
    </g>
    <g id="Group_32" data-name="Group 32" transform="translate(7.885 22.172)">
      <g id="Group_31" data-name="Group 31" transform="translate(0 0)">
        <path id="Path_2062" data-name="Path 2062" d="M209.293,144.4h-4.925a.786.786,0,0,0,0,1.572h4.925a.786.786,0,0,0,0-1.572Z" transform="translate(-203.582 -144.402)" fill="#fff" stroke="#fff" stroke-width="0.4"/>
      </g>
    </g>
    <g id="Group_34" data-name="Group 34" transform="translate(7.885 25.97)">
      <g id="Group_33" data-name="Group 33">
        <path id="Path_2063" data-name="Path 2063" d="M211.179,242.473h-6.811a.786.786,0,0,0,0,1.572h6.811a.786.786,0,0,0,0-1.572Z" transform="translate(-203.582 -242.473)" fill="#fff" stroke="#fff" stroke-width="0.4"/>
      </g>
    </g>
    <g id="Group_38" data-name="Group 38" transform="translate(7.885 29.533)">
      <g id="Group_37" data-name="Group 37">
        <path id="Path_2065" data-name="Path 2065" d="M209.293,334.464h-4.925a.786.786,0,0,0,0,1.572h4.925a.786.786,0,1,0,0-1.572Z" transform="translate(-203.582 -334.464)" fill="#fff" stroke="#fff" stroke-width="0.4"/>
      </g>
    </g>
  </g>
</svg>
