<svg xmlns="http://www.w3.org/2000/svg" width="20" height="20" viewBox="0 0 20 20">
  <g id="settings" transform="translate(-7175.5 -7175.5)">
    <path id="Path_2058" data-name="Path 2058" d="M7179.558,7193.7l2.385-1.253,1.156.477.8,2.571h3.2l.8-2.572,1.156-.477,2.385,1.253,2.263-2.263-1.253-2.385.477-1.156,2.572-.8v-3.2l-2.572-.8-.477-1.156,1.253-2.385-2.263-2.263-2.385,1.253-1.157-.477-.8-2.571h-3.2l-.8,2.572-1.156.477-2.385-1.253-2.263,2.263,1.253,2.385-.477,1.156-2.572.8v3.2l2.571.8.477,1.156-1.253,2.385Z" transform="translate(0 0)" fill="#ecb7bf"/>
    <circle id="Ellipse_7" data-name="Ellipse 7" cx="4" cy="4" r="4" transform="translate(7181.5 7181.5)" fill="#fff"/>
  </g>
</svg>
